# xmcd
#
# Track frame offsets:
#	150
#	12915
#	26885
#	43892
#	59367
#	76072
#	88790
#	101622
#	115852
#	130562
#	145477
#	162367
#
# Disc length: 2358 seconds
#
# Revision: 0
# Processed by: cddbd v1.5PL3 Copyright (c) Steve Scherf et al.
# Submitted via: dBpowerAMP V4.0
#
DISCID=9c09340c
DTITLE=Los Tigres del Norte - Con Sentimiento y Sabor
DYEAR=1900
DGENRE=Latin
TTITLE0=El Sastre
TTITLE1=La Creación
TTITLE2=Rock del Corazón
TTITLE3=Bonita y Mala
TTITLE4=El Amor es Ciego
TTITLE5=Por lo Menos Hoy
TTITLE6=El Celular
TTITLE7=Cuba
TTITLE8=Tan Bonita
TTITLE9=Cumbia de Amor
TTITLE10=Ave de Paso
TTITLE11=Decepción
EXTD=
EXTT0=
EXTT1=
EXTT2=
EXTT3=
EXTT4=
EXTT5=
EXTT6=
EXTT7=
EXTT8=
EXTT9=
EXTT10=
EXTT11=
PLAYORDER=
